<svg xmlns="http://www.w3.org/2000/svg" xmlns:xlink="http://www.w3.org/1999/xlink" viewBox="0 0 541.21 135.64"><defs><style>.cls-1{fill:#222080;}.cls-2{fill:#4687e6;}.cls-3{fill:#fff;}.cls-4{fill:#9f1f61;}.cls-5{fill:url(#linear-gradient);}</style><linearGradient id="linear-gradient" x1="392.55" y1="77.05" x2="541.21" y2="77.05" gradientUnits="userSpaceOnUse"><stop offset="0" stop-color="#c51bff"/><stop offset="0.13" stop-color="#b71bff"/><stop offset="0.39" stop-color="#931bff"/><stop offset="0.73" stop-color="#581bff"/><stop offset="1" stop-color="#261bff"/></linearGradient></defs><g id="Layer_2" data-name="Layer 2"><g id="Layer_1-2" data-name="Layer 1"><path class="cls-1" d="M151.55,97.8c-11.65,0-19.4-9-19.4-19.8s7.75-19.8,19.4-19.8,19.39,9,19.39,19.8S163.2,97.8,151.55,97.8Zm0-34.61c-8.9,0-13.89,7-13.89,14.81s5,14.8,13.89,14.8,13.88-6.94,13.88-14.8S160.44,63.19,151.55,63.19Z"/><path class="cls-1" d="M189,97.8a10.3,10.3,0,0,1-8.83-4.94V105.6a2.7,2.7,0,0,1-5.4,0V74.44a2.5,2.5,0,0,1,2.58-2.7A2.59,2.59,0,0,1,180,74.5v2a10.37,10.37,0,0,1,9-4.94c6.6,0,12,5.51,12,13.15C201,92.57,195.64,97.8,189,97.8ZM188,76c-4.64,0-7.74,4.08-7.74,8.67s3.1,8.66,7.74,8.66,7.69-3.5,7.69-8.66S192.6,76,188,76Z"/><path class="cls-1" d="M228,84.71c0,.92-.51,1.84-2.06,1.84H208.79c.29,4,3,6.94,7.75,6.94a8.8,8.8,0,0,0,6.65-2.81,2.63,2.63,0,0,1,1.78-.86,2.17,2.17,0,0,1,2.24,2.24,2.41,2.41,0,0,1-.69,1.55,13.75,13.75,0,0,1-10.21,4.19c-8.55,0-13.09-6-13.09-13.14,0-7.52,5.46-13.15,12.86-13.15C223.31,71.51,228,77.37,228,84.71Zm-11.93-8.89a7.14,7.14,0,0,0-7.18,6.37H223A7,7,0,0,0,216.08,75.82Z"/><path class="cls-1" d="M243.16,71.51a11.79,11.79,0,0,1,12.05,12V94.87a2.7,2.7,0,1,1-5.39,0v-12a6.63,6.63,0,0,0-13.26,0v12a2.7,2.7,0,1,1-5.39,0V83.51A11.74,11.74,0,0,1,243.16,71.51Z"/><path class="cls-2" d="M286.31,88.67h-17l-3.27,7a3.11,3.11,0,0,1-2.93,1.9,3.24,3.24,0,0,1-3.33-3.27,3.07,3.07,0,0,1,.35-1.38l14.69-32.65a3,3,0,0,1,3-1.84,2.93,2.93,0,0,1,3,1.84l14.69,32.65a3.07,3.07,0,0,1,.35,1.38,3.24,3.24,0,0,1-3.33,3.27,3,3,0,0,1-2.93-1.9ZM277.82,68l-6,14.57h11.94Z"/><path class="cls-2" d="M302,97.57A3.58,3.58,0,0,1,298.42,94V62A3.58,3.58,0,0,1,302,58.43,3.49,3.49,0,0,1,305.43,62V94A3.49,3.49,0,0,1,302,97.57Z"/><path class="cls-2" d="M343.59,94.07a3.48,3.48,0,0,1-3.5,3.5,3.15,3.15,0,0,1-3.1-1.9l-6.71-13.83H318.74V94.07a3.5,3.5,0,0,1-7,0V62.39a3.48,3.48,0,0,1,3.5-3.5H330c9.53,0,13.6,4.71,13.6,11.48,0,4.47-1.95,8.32-6.31,10.21l5.91,12A3.42,3.42,0,0,1,343.59,94.07ZM331,65.32H318.74v10.5H331a5.24,5.24,0,0,0,5.56-5.4C336.53,67.9,334.81,65.32,331,65.32Z"/><path class="cls-2" d="M373.53,97.11H352a3.53,3.53,0,0,1-3.56-3.5V62.39a3.53,3.53,0,0,1,3.56-3.5h20.66A3.23,3.23,0,0,1,376,62.1a3.28,3.28,0,0,1-3.32,3.27H355.45V74.5H370a3.26,3.26,0,0,1,3.27,3.27A3.21,3.21,0,0,1,370,81H355.45v9.64h18.08a3.29,3.29,0,0,1,3.33,3.27A3.24,3.24,0,0,1,373.53,97.11Z"/><path class="cls-1" d="M59.12,135.64a59.12,59.12,0,1,1,59.11-59.12,59.19,59.19,0,0,1-59.11,59.12m0-100.34a41.22,41.22,0,1,0,41.22,41.22A41.27,41.27,0,0,0,59.12,35.3"/><path class="cls-2" d="M103.68,64.48a32.24,32.24,0,1,1,32.24-32.24,32.27,32.27,0,0,1-32.24,32.24"/><path class="cls-3" d="M115.46,35.09h-8.63v8.62a3.15,3.15,0,1,1-6.29,0V35.09H91.91a2.86,2.86,0,0,1-2.85-2.85,2.82,2.82,0,0,1,2.85-2.85h8.63V20.77a3.15,3.15,0,1,1,6.29,0v8.62h8.63a2.85,2.85,0,0,1,0,5.7"/><path class="cls-4" d="M428.05,91.84,414.49,73.28V91.84h-6.05V63.39h6.22l13.18,17.87V63.39h6.06V91.84Z"/><path class="cls-4" d="M439.53,91.84V63.39h20.12v5.33H445.58v6h13.77v5.33H445.58V86.5h14.07v5.34Z"/><path class="cls-4" d="M482.79,91.72,475.7,81.36l-7.13,10.36h-7.18L471.67,77.2,462,63.4h7.18l6.49,9.68,6.42-9.68h7.26l-9.64,13.76L490,91.72Z"/><path class="cls-4" d="M518.3,87.4l3.21-4.51a12.22,12.22,0,0,0,8.85,3.75c3.25,0,4.84-1.5,4.84-3.08,0-2-2.59-2.63-5.64-3.38-4.55-1.05-10.39-2.3-10.39-8.64,0-4.63,4-8.47,10.56-8.47A15.46,15.46,0,0,1,540.58,67l-3.3,4.34a11.94,11.94,0,0,0-8.09-3.05c-2.55,0-4,1.13-4,2.8s2.55,2.38,5.55,3.09c4.59,1.08,10.44,2.46,10.44,8.76,0,5.09-3.64,8.93-11.15,8.93C524.72,91.82,520.88,90,518.3,87.4Z"/><path class="cls-4" d="M491.46,80.47v-17h6.1V80.26c0,3.94,2.28,6.65,6.65,6.65s6.61-2.71,6.61-6.65V63.48H517v17c0,7-4.15,11.82-12.75,11.82S491.46,87.42,491.46,80.47Z"/><path class="cls-4" d="M393.59,122a1,1,0,0,1-1-1V33.12a1,1,0,1,1,2.09,0V121A1,1,0,0,1,393.59,122Z"/><path class="cls-5" d="M428.05,91.84,414.49,73.28V91.84h-6.05V63.39h6.22l13.18,17.87V63.39h6.06V91.84Z"/><path class="cls-5" d="M439.53,91.84V63.39h20.12v5.33H445.58v6h13.77v5.33H445.58V86.5h14.07v5.34Z"/><path class="cls-5" d="M482.79,91.72,475.7,81.36l-7.13,10.36h-7.18L471.67,77.2,462,63.4h7.18l6.49,9.68,6.42-9.68h7.26l-9.64,13.76L490,91.72Z"/><path class="cls-5" d="M518.3,87.4l3.21-4.51a12.22,12.22,0,0,0,8.85,3.75c3.25,0,4.84-1.5,4.84-3.08,0-2-2.59-2.63-5.64-3.38-4.55-1.05-10.39-2.3-10.39-8.64,0-4.63,4-8.47,10.56-8.47A15.46,15.46,0,0,1,540.58,67l-3.3,4.34a11.94,11.94,0,0,0-8.09-3.05c-2.55,0-4,1.13-4,2.8s2.55,2.38,5.55,3.09c4.59,1.08,10.44,2.46,10.44,8.76,0,5.09-3.64,8.93-11.15,8.93C524.72,91.82,520.88,90,518.3,87.4Z"/><path class="cls-5" d="M491.46,80.47v-17h6.1V80.26c0,3.94,2.28,6.65,6.65,6.65s6.61-2.71,6.61-6.65V63.48H517v17c0,7-4.15,11.82-12.75,11.82S491.46,87.42,491.46,80.47Z"/><path class="cls-5" d="M393.59,122a1,1,0,0,1-1-1V33.12a1,1,0,1,1,2.09,0V121A1,1,0,0,1,393.59,122Z"/></g></g></svg>